<svg xmlns="http://www.w3.org/2000/svg" xmlns:xlink="http://www.w3.org/1999/xlink" xmlns:lucid="lucid" width="1111.43" height="927.75"><g transform="translate(368.03731334342217 -231.77747201492102)" lucid:page-tab-id="0_0"><path d="M-1696 0h3456v1360h-3456z" fill="#fff"/><path d="M-314.27 516.47a6 6 0 0 1 6-6h159.2a6 6 0 0 1 6 6v360.8a6 6 0 0 1-6 6h-159.2a6 6 0 0 1-6-6z" fill-opacity="0"/><path d="M-281.74 510.47h26.53m13.26 0h26.53m13.26 0h26.53m13.25 0h13.27l.94.07.92.22.87.36.8.5.7.6.63.72.5.8.35.87.22.93.07.94v15.03m0 15.03v30.07m0 15.03v30.07m0 15.03v30.07m0 15.03v30.06m0 15.03V757m0 15.03v30.06m0 15.02v30.07m0 15.02v15.04l-.07.93-.22.9-.36.88-.5.8-.6.72-.72.6-.8.5-.87.36-.92.22-.94.08h-13.26m-13.27 0h-26.54m-13.27 0h-26.54m-13.27 0h-26.54m-13.27 0h-13.27l-.94-.08-.93-.22-.87-.36-.8-.5-.72-.6-.6-.72-.5-.8-.36-.87-.22-.9-.07-.94v-15.04m0-15.03V817.1m0-15.03v-30.07m0-15.04v-30.07m0-15.04v-30.07m0-15.03v-30.07m0-15.03v-30.07m0-15.03v-30.07m0-15.03v-15.03l.07-.94.22-.92.36-.86.5-.8.6-.72.72-.6.8-.5.87-.36.92-.22.93-.07H-295" stroke="#3a414a" stroke-width="3" fill="none"/><path d="M-57.06 294.44a6 6 0 0 1 6-6H717.4a6 6 0 0 1 6 6v839.1a6 6 0 0 1-6 6H-51.07a6 6 0 0 1-6-6z" fill-opacity="0"/><path d="M-20.93 288.44H9.21m15.08 0H54.4m15.08 0h30.14m15.06 0h30.14m15.07 0H190m15.07 0h30.13m15.06 0h30.13m15.07 0h30.13m15.07 0h30.14m15.06 0h30.14m15.07 0h30.14m15.07 0h30.14m15.07 0h30.15m15.07 0h30.13m15.07 0h30.13m15.07 0h30.14m15.07 0h15.06l.93.08.92.22.87.36.8.5.72.6.6.72.5.8.36.87.22.9.07.94v14.73m0 14.72v29.43m0 14.72v29.44m0 14.7v29.45m0 14.72v29.44m0 14.74v29.44m0 14.72v29.44m0 14.72v29.44m0 14.72v29.45m0 14.72v29.43m0 14.72v29.44m0 14.7v29.45m0 14.72v29.45m0 14.72v29.44m0 14.72v29.44m0 14.72v29.44m0 14.72v29.44m0 14.73v29.43m0 14.72v29.44m0 14.7v14.73l-.08.94-.22.92-.36.86-.5.8-.6.72-.72.6-.8.5-.87.36-.92.22-.94.07h-15.07m-15.07 0h-30.14m-15.07 0h-30.13m-15.07 0h-30.13m-15.07 0H521.5m-15.06 0H476.3m-15.06 0H431.1m-15.06 0H385.9m-15.06 0H340.7m-15.07 0H295.5m-15.07 0H250.3m-15.07 0H205.1m-15.08 0H159.9m-15.08 0H114.7m-15.08 0H69.48m-15.07 0H24.3m-15.07 0h-30.13m-15.06 0h-15.06l-.94-.07-.9-.22-.88-.36-.8-.5-.72-.6-.6-.72-.5-.8-.37-.87-.22-.93-.06-.94v-14.72m0-14.7v-29.45m0-14.72v-29.44m0-14.74v-29.44m0-14.72v-29.44m0-14.72V898m0-14.72v-29.44m0-14.73V809.7m0-14.72V765.5m0-14.7v-29.45m0-14.72V677.2m0-14.74v-29.44m0-14.72v-29.44m0-14.72V544.7m0-14.72v-29.44m0-14.73V456.4m0-14.72V412.2m0-14.7v-29.45m0-14.72V323.9m0-14.73v-14.73l.07-.93.23-.9.36-.88.5-.8.6-.72.7-.6.82-.5.87-.36.9-.22.94-.08H-36" stroke="#3a414a" stroke-width="3" fill="none"/><use xlink:href="#a" transform="matrix(1,0,0,1,-45.05997849145581,300.4441386815877) translate(338.4074074074074 418.84027777777777)"/><path d="M434.3 312.85a6 6 0 0 1 6-6h255.26a6 6 0 0 1 6 6v805.63a6 6 0 0 1-6 6H440.3a6 6 0 0 1-6-6z" stroke="#000" stroke-opacity="0" fill="#cfe4ff"/><path d="M-36.2 312.85a6 6 0 0 1 6-6h447.9a6 6 0 0 1 6 6v807.53a6 6 0 0 1-6 6H-30.2a6 6 0 0 1-6-6z" stroke="#000" stroke-opacity="0" fill="#fff7a1"/><path d="M261.2 533.84h120v120h-120v-120z" stroke="#fff" stroke-opacity="0" stroke-width="2" fill="#d86613"/><path d="M358 633.84h-19.72c-.64 0-1.15-.32-1.4-.88l-27.92-58.32h-11.78c-.9 0-1.6-.72-1.6-1.6v-17.6c0-.88.7-1.6 1.6-1.6h24.65c.64 0 1.15.32 1.4.88l27.8 58.32H358c.9 0 1.6.72 1.6 1.6v17.6c0 .88-.7 1.6-1.6 1.6zm-18.7-3.2h17.1v-14.4H350c-.64 0-1.16-.32-1.4-.88l-27.8-58.32h-22.02v14.4h11.2c.64 0 1.16.32 1.48.88z" stroke="#fff" stroke-opacity="0" stroke-width="2" fill="#fff"/><path d="M305.15 633.84h-20.78c-.57 0-1.06-.3-1.38-.73-.33-.53-.33-1.1-.08-1.6l21.77-45.46c.24-.58.8-.92 1.4-.92.65 0 1.18.34 1.46.88l10.4 21.43c.26.44.26.93 0 1.42l-11.35 23.97c-.2.63-.77 1.02-1.45 1.02zm-18.23-3.22h17.24l10.6-22.36-8.62-17.88z" stroke="#fff" stroke-opacity="0" stroke-width="2" fill="#fff"/><use xlink:href="#b" transform="matrix(1,0,0,1,231.19740239892963,662.8397991373502) translate(37.62345679012345 17.77777777777778)"/><path d="M141.2 332.68h120v120h-120v-120z" stroke="#fff" stroke-opacity="0" fill="#d6242d"/><path d="M218.8 431.1c-.35 0-.64-.15-.93-.3-.43-.3-.67-.78-.67-1.3v-73.63c0-.54.3-1.08.77-1.38.48-.32 1.08-.32 1.6-.1l20.8 10.23c.56.23.9.77.9 1.38v56.57c.02.77-.42 1.38-1.1 1.6l-20.8 6.93h-.56zm1.62-72.62v68.78l17.6-5.84v-54.4zM183.6 431.1h-.52l-20.8-6.92c-.68-.23-1.1-.92-1.1-1.6V366c0-.6.35-1.14.9-1.37l20.8-10.22c.54-.22 1.12-.22 1.62.1.48.3.75.83.75 1.37v73.6c0 .55-.25 1-.68 1.32-.3.22-.6.3-.98.3zm-19.2-9.6l17.6 5.83v-68.85l-17.6 8.6z" stroke="#fff" stroke-opacity="0" fill="#fff"/><path d="M217.2 376.68h-4.8v-3.2h4.8zm-9.6 0h-4.82v-3.2h4.8zm-9.6 0h-4.8v-3.2h4.8zm-9.6 0h-4.8v-3.2h4.8zM217.2 411.88h-4.8v-3.2h4.8zm-9.6 0h-4.82v-3.2h4.8zm-9.6 0h-4.8v-3.2h4.8zm-9.6 0h-4.8v-3.2h4.8zM194.17 398.18l-6-5.13c-.68-.57-.76-1.6-.2-2.26l.2-.2 6-5.12 2.07 2.43-4.58 3.98 4.58 3.92zM208.24 398.18l-2.08-2.42 4.57-3.88-4.6-3.9 2.1-2.5 6 5.12c.68.57.76 1.6.2 2.26l-.2.17z" stroke="#fff" stroke-opacity="0" fill="#fff"/><path d="M196.5 401.55l6.35-18.8 3.03 1.03-6.35 18.8-3.04-1.03z" stroke="#fff" stroke-opacity="0" stroke-width=".32" fill="#fff"/><use xlink:href="#c" transform="matrix(1,0,0,1,111.19740239892963,461.6795982747003) translate(25.21604938271605 17.77777777777778)"/><use xlink:href="#d" transform="matrix(1,0,0,1,111.19740239892963,461.6795982747003) translate(67.19135802469137 17.77777777777778)"/><path d="M111.2 807.7l-6.24 10.92c-.48.85-1.44 1.37-2.4 1.37H78.32c-.96 0-1.8-.53-2.28-1.38l-12.12-21.1c-.48-.84-.48-1.9 0-2.73l12.12-21.22c.48-.84 1.32-1.37 2.28-1.37h24.24c.96 0 1.92.54 2.4 1.38l4.08 7.25-4.68 2.72-3.36-5.77H80l-10.56 18.38L80 814.52h21l5.52-9.55zm-22.32-10.18v-5.56h59.4l-11.52-11.66 3.84-3.88 16.2 16.38c1.08 1.05 1.08 2.83 0 3.88l-16.2 16.38-3.84-3.88 11.52-11.66zm-34.08-.74l.72 5.47-17.16 2.2-.72-5.46zm79.32-31.4l-13.8 10.4-3.36-4.4 13.8-10.4zm-75.36 13.45l-2.16 5.04-15.96-6.62 2.16-5.14zM46.64 824.6l13.8-10.38 3.24 4.4-13.8 10.4zm66.72-77.06l-6.72 15.96-5.04-2.2 6.72-15.86zm-46.08 94.92L74 826.5l5.04 2.2-6.72 15.86zm3.84-77.28l-4.32 3.36-10.44-13.65 4.32-3.37zm38.52 59.64l4.32-3.36 10.44 13.65-4.32 3.37zM92 830.38l5.52-.63 2.04 17-5.4.75zm-3.36-70.76l-5.4.63-2.16-17 5.4-.75z" stroke="#000" stroke-opacity="0" fill="#b0084d"/><path d="M125.84 794.9c0 19.93-16.04 36.12-35.82 36.12-19.77 0-35.82-16.2-35.82-36.13 0-19.94 16.05-36.13 35.82-36.13 19.78 0 35.82 16.2 35.82 36.13z" stroke="#000" stroke-opacity="0" fill-opacity="0"/><use xlink:href="#e" transform="matrix(1,0,0,1,7.643066899155883,856.5) translate(28.963580246913594 17.955555555555552)"/><use xlink:href="#f" transform="matrix(1,0,0,1,7.643066899155883,856.5) translate(39.624691358024705 44.888888888888886)"/><use xlink:href="#g" transform="matrix(1,0,0,1,7.643066899155883,856.5) translate(94.3641975308642 44.888888888888886)"/><path d="M37.64 533.84h120v120h-120v-120z" stroke="#fff" stroke-opacity="0" stroke-width="2" fill="#d86613"/><path d="M134.44 633.84h-19.7c-.65 0-1.17-.32-1.42-.88l-27.9-58.32H73.6c-.9 0-1.6-.72-1.6-1.6v-17.6c0-.88.7-1.6 1.6-1.6h24.65c.64 0 1.16.32 1.4.88l27.8 58.32h6.97c.9 0 1.6.72 1.6 1.6v17.6c0 .88-.7 1.6-1.6 1.6zm-18.7-3.2h17.1v-14.4h-6.4c-.64 0-1.15-.32-1.4-.88l-27.8-58.32h-22v14.4h11.2c.63 0 1.14.32 1.46.88z" stroke="#fff" stroke-opacity="0" stroke-width="2" fill="#fff"/><path d="M81.6 633.84H60.82c-.57 0-1.07-.3-1.38-.73-.32-.53-.32-1.1-.07-1.6l21.77-45.46c.25-.58.8-.92 1.42-.92.63 0 1.16.34 1.45.88l10.42 21.43c.24.44.24.93 0 1.42l-11.37 23.97c-.2.63-.78 1.02-1.45 1.02zm-18.23-3.22H80.6l10.6-22.36-8.6-17.88z" stroke="#fff" stroke-opacity="0" stroke-width="2" fill="#fff"/><use xlink:href="#h" transform="matrix(1,0,0,1,7.643066899155883,662.8397991373502) translate(59.81481481481482 17.77777777777778)"/><use xlink:href="#i" transform="matrix(1,0,0,1,7.643066899155883,662.8397991373502) translate(27.129629629629626 44.44444444444444)"/><path d="M261.2 735h120v120h-120V735z" stroke="#fff" stroke-opacity="0" stroke-width="2" fill="#3f8624"/><path d="M359.5 799.06c-.47-2.48-3.3-4.25-5.3-5.53-.62-.4-2.3-1.04-2.46-1.6 0-.4 0-.8.16-1.2l1.6-11.46 1.4-10.17c.37-3.05-1.1-5.13-3.62-6.9-5.13-3.6-11.88-5.04-17.94-6-7.97-1.28-14.95-1.52-23-.72-7.28.48-13.34 1.92-20.1 4.8-3.36 1.6-7.88 4.1-7.27 8.42 1.53 12.97 3.45 25.95 5.2 38.93.78 5.93 1.62 11.86 2.4 17.8.3 2.47 1.68 4.4 3.98 5.35 4.9 2.65 11.04 3.45 16.63 3.93 7.75.73 14.34.5 22-.95 4.6-.8 13.2-2.25 13.96-8 .92-7.14 1.92-14.27 2.84-21.4l.38-2.17c2.6.65 10.05 2 9.13-3.12zm-40.65-40.86c9.66 0 20.63 1.12 29.2 5.85 1.4.72 4.46 2.32 3.54 4.33-.93 1.92-3.85 2.88-5.6 3.6-2.62.96-5 1.6-7.75 2.16-11.96 2.4-22.54 2.65-34.66.73-5.45-.57-9.97-1.93-14.88-4.33-1.15-.72-3.07-1.84-2.53-3.45.37-.9 1-1.53 1.83-2 3.76-2.4 7.2-3.85 11.58-4.65 6.6-1.6 12.43-2.33 19.25-2.25zM344 825.66c-.3 1.84-3.38 2.8-4.83 3.28-3.22 1.12-6.06 1.76-9.43 2.16-7.44.97-13.88.97-21.4 0-4.67-.4-8.58-1.44-12.8-3.52-1.15-.48-1.84-1.52-1.9-2.73-1.62-12.73-3.4-25.4-5.15-38.05l-1.85-13.78c3.83 2.1 7.36 3.37 11.65 4.1 4.68.95 8.6 1.43 13.34 1.75 9.2.64 17.1.24 26.23-1.44 4.82-.72 8.8-2.08 13.1-4.4l-3.37 25.07c-8.6-2.8-15.64-5.6-23.7-9.54-.37-.16-.68-.32-.98-.48-.47-.32-.3-.16-.54-.64-.38-.96-.46-1.6-1.3-2.4-.77-.56-1.62-.8-2.53-.72-2 .08-3.53 1.84-3.38 3.84.15 1.93 1.92 3.45 3.9 3.3.55-.1 1-.25 1.62-.5.6-.15.6-.15 1.22.17 8.2 4 15.33 6.97 24 9.85 1.22.4 1.22 0 1.22 1.04-.07.8-.15 1.53-.3 2.33l-1 7.6zm-24.7-37.9c0 .48-.6.4-.75.16-.24-.32.76-.72.76-.16zm31.52 11.22l.46-3.53c1.6.96 4.3 2.33 5.06 4.1-1.6.63-4.06-.17-5.52-.57z" stroke="#fff" stroke-opacity="0" stroke-width="2" fill="#fff"/><use xlink:href="#j" transform="matrix(1,0,0,1,231.19740239892963,864) translate(8.086419753086417 17.77777777777778)"/><use xlink:href="#k" transform="matrix(1,0,0,1,231.19740239892963,864) translate(111.54320987654322 17.77777777777778)"/><use xlink:href="#l" transform="matrix(1,0,0,1,231.19740239892963,864) translate(56.04938271604938 44.44444444444444)"/><path d="M139.42 941.6h120v120h-120v-120z" stroke="#fff" stroke-opacity="0" stroke-width="2" fill="#d86613"/><path d="M236.22 1041.6H216.5c-.64 0-1.15-.32-1.4-.88l-27.92-58.32H175.4c-.9 0-1.6-.72-1.6-1.6v-17.6c0-.88.7-1.6 1.6-1.6h24.65c.64 0 1.15.32 1.4.88l27.8 58.32h6.97c.9 0 1.6.72 1.6 1.6v17.6c0 .88-.7 1.6-1.6 1.6zm-18.7-3.2h17.1V1024h-6.4c-.65 0-1.16-.32-1.4-.88L199 964.8H177v14.4h11.2c.65 0 1.16.32 1.48.88z" stroke="#fff" stroke-opacity="0" stroke-width="2" fill="#fff"/><path d="M183.37 1041.6H162.6c-.57 0-1.07-.3-1.4-.73-.3-.54-.3-1.12-.06-1.6l21.77-45.47c.26-.58.83-.92 1.43-.92.64 0 1.17.34 1.45.88l10.4 21.43c.26.43.26.92 0 1.4l-11.36 23.98c-.2.63-.77 1.02-1.45 1.02zm-18.23-3.22h17.24l10.6-22.36-8.6-17.88z" stroke="#fff" stroke-opacity="0" stroke-width="2" fill="#fff"/><use xlink:href="#m" transform="matrix(1,0,0,1,109.41768400652927,1070.5978714878215) translate(27.77777777777777 17.77777777777778)"/><use xlink:href="#n" transform="matrix(1,0,0,1,109.41768400652927,1070.5978714878215) translate(49.351851851851855 44.44444444444444)"/><path d="M-188.94 812.93h-79.47c-4.75 0-8.62-3.86-8.62-8.6V724.8c0-4.63 3.87-8.5 8.6-8.5h79.48c4.73 0 8.6 3.88 8.6 8.5v79.53c0 4.74-3.87 8.6-8.6 8.6zm-79.47-91.1h-.1c-1.65 0-3.1 1.34-3.1 2.98v79.53c0 1.74 1.45 3.1 3.2 3.1h79.46c1.74 0 3.2-1.36 3.2-3.1V724.8c-.1-1.63-1.46-3.08-3.2-2.98z" stroke="#fff" stroke-opacity="0" fill="#3f8624"/><path d="M-260.22 704.6h5.46V719h-5.46v-14.4zM-245.8 704.6h5.46V719h-5.46v-14.4zM-231.4 704.6h5.46V719h-5.47v-14.4zM-217 704.6h5.45V719H-217v-14.4zM-202.6 704.6h5.47V719h-5.47v-14.4zM-260.22 810.2h5.46v14.4h-5.46v-14.4zM-245.8 810.2h5.46v14.4h-5.46v-14.4zM-231.4 810.2h5.46v14.4h-5.47v-14.4zM-217 810.2h5.45v14.4H-217v-14.4zM-202.6 810.2h5.47v14.4h-5.47v-14.4zM-288.68 733.05h14.4v5.46h-14.4v-5.45zM-288.68 747.47h14.4v5.46h-14.4v-5.46zM-288.68 761.86h14.4v5.47h-14.4v-5.47zM-288.68 776.26h14.4v5.46h-14.4v-5.46zM-288.68 790.67h14.4v5.47h-14.4v-5.47zM-183.07 733.05h14.4v5.46h-14.4v-5.45zM-183.07 747.47h14.4v5.46h-14.4v-5.46zM-183.07 761.86h14.4v5.47h-14.4v-5.47zM-183.07 776.26h14.4v5.46h-14.4v-5.46zM-183.07 790.67h14.4v5.47h-14.4v-5.47zM-219.07 786.44h-19.1c-1.53 0-2.76-1.2-2.76-2.7v-7.2c-8.37-4.57-13.22-12.7-13.17-22.2 0-14.13 11.44-25.55 25.53-25.55 14.1 0 25.54 11.4 25.54 25.53.05 9.5-4.8 17.64-13.18 22.2v7.2c0 1.5-1.23 2.7-2.77 2.7h-.1zm-16.4-5.47h13.7v-6.1c-.06-1.1.56-2.03 1.53-2.5 7.3-3.28 11.64-10.08 11.64-18.04 0-11.07-9-20.06-20.07-20.06-11.08 0-20.07 9-20.07 20.06-.05 7.96 4.34 14.76 11.64 18.05.97.46 1.54 1.38 1.54 2.48z" stroke="#fff" stroke-opacity="0" fill="#3f8624"/><path d="M-231.4 762.2h5.46v21.6h-5.47v-21.6z" stroke="#fff" stroke-opacity="0" fill="#3f8624"/><path d="M-233.48 759.46h9.6v5.46h-9.6v-5.46zM-221.63 803.32h-14.17c-2.2 0-3.77-2.05-3.77-4.9v-.83c0-.64.06-1.2.24-1.8-.18-.6-.24-1.15-.24-1.8v-.84c0-2.74 1.58-4.9 3.77-4.9h14.17c2.16 0 3.75 2.06 3.75 4.9v.85c0 .65-.1 1.2-.26 1.8.17.6.26 1.16.26 1.8v.83c.13 2.84-1.6 4.9-3.75 4.9zm-12.48-5.46h10.88v-.27c.02-.13.02-.22 0-.35-.67-.9-.67-2.1 0-3v-.52h-10.9v.27c-.05.13-.05.22 0 .34.66.9.66 2.1 0 3.02v.23z" stroke="#fff" stroke-opacity="0" fill="#3f8624"/><use xlink:href="#o" transform="matrix(1,0,0,1,-318.6760793644602,833.5942043158142) translate(29.5679012345679 17.77777777777778)"/><use xlink:href="#p" transform="matrix(1,0,0,1,-318.6760793644602,833.5942043158142) translate(76.41975308641975 17.77777777777778)"/><path d="M-258.68 533.84h60.06V636.8h-60.06V533.84z" fill="#29aae1"/><path d="M-235.76 605.33h30.54c.96 0 .96 0 .96 1.02 0 .93 0 .93-.96.93h-30.54c-1.02 0-1.02 0-1.02-.93 0-1.02 0-1.02 1.02-1.02zM-235.7 610.57h30.42c1.32 0 1.32 0 1.32 1.34v.32c0 1.33 0 1.33-1.32 1.33h-30.42c-1.38 0-1.38 0-1.38-1.33v-.3c0-1.35 0-1.35 1.38-1.35zM-235.58 617.05h30.48c1.32 0 1.32 0 1.32 1.34v.3c0 1.33 0 1.33-1.32 1.33h-30.48c-1.32 0-1.32 0-1.32-1.33v-.3c0-1.35 0-1.35 1.32-1.35zM-207.8 583.83c0 2.67-2.16 4.83-4.92 4.83s-4.98-2.16-4.98-4.83c0-2.68 2.22-4.84 4.98-4.84 2.76 0 4.92 2.15 4.92 4.83z" fill="#fff"/><path d="M-209.78 583.83c0 1.64-1.32 2.98-3 2.98s-3.06-1.33-3.06-2.97c0-1.65 1.38-2.98 3.06-2.98 1.68 0 3 1.33 3 2.98z" fill="#54bbe7"/><use xlink:href="#q" transform="matrix(1,0,0,1,-288.6760793644602,636.696941994493) translate(26.111111111111107 19.444444444444443)"/><path d="M-348.04 470.66a6 6 0 0 1 6-6h228a6 6 0 0 1 6 6v48a6 6 0 0 1-6 6h-228a6 6 0 0 1-6-6z" stroke="#000" stroke-opacity="0" fill="#fff" fill-opacity="0"/><use xlink:href="#r" transform="matrix(1,0,0,1,-343.03731334342217,469.6612607598202) translate(44.75308641975309 30.27777777777778)"/><use xlink:href="#s" transform="matrix(1,0,0,1,-343.03731334342217,469.6612607598202) translate(103.95061728395062 30.27777777777778)"/><path d="M536.72 740.36h75.44c19.78 0 19.78 0 19.78 19.72v75.2c0 19.7 0 19.7-19.78 19.7h-75.44c-19.78 0-19.78 0-19.78-19.7v-75.2c0-19.72 0-19.72 19.78-19.72z" fill="#19486f"/><path d="M536.72 735h75.44c19.78 0 19.78 0 19.78 19.72v75.2c0 19.7 0 19.7-19.78 19.7h-75.44c-19.78 0-19.78 0-19.78-19.7v-75.2c0-19.72 0-19.72 19.78-19.72z" fill="#2e73b8"/><path d="M522.36 752.98h5.4c2.38-.22 4.5 1.5 4.74 3.9.02.37.02.68-.04 1.05.24 2.54-1.63 4.78-4.17 5.02-.3.02-.54.02-.82 0h-2.4v7.03h-2.72zm2.7 7.9H527c.17.03.33.03.5 0 1.42-.2 2.4-1.5 2.2-2.9 0-1.83-.73-2.94-2.9-2.94h-1.73zM538.53 756.84c3.75 0 4.8 2.77 4.8 6.73 0 3.95-1.22 6.72-4.8 6.72s-4.77-2.78-4.77-6.73c0-3.96 1.06-6.73 4.77-6.73zm0 11.57c1.9 0 2.17-1.56 2.17-4.8 0-2.85-.32-4.84-2.17-4.84-1.85 0-2.17 2-2.17 4.83-.02 3.27.32 4.8 2.17 4.8zM550.9 760.9v-.3c0-1.03-.35-2-1.68-2-1.32 0-1.84.5-1.84 1.68 0 1.2.46 1.4 1.83 1.88l1.65.57c1.76.34 2.95 1.9 2.8 3.7 0 2.74-2 3.9-4.6 3.9-3.26 0-4.23-1.5-4.23-4v-.47h2.28v.4c0 1.5.5 2.3 2 2.3 1.47 0 2.17-.7 2.17-1.88.03-.88-.55-1.66-1.42-1.88l-2.17-.74c-1.73-.35-2.9-1.9-2.73-3.67 0-2.4 1.74-3.54 4.34-3.54 3.27 0 4 1.9 4 3.5v.57zM554.65 757.16h1.76v-3.63H559v3.63h2.17v1.9h-2.17v7.64c0 1 .3 1.37 1.17 1.37h.93v1.9c-.74.16-1.4.23-2.16.2-1.74 0-2.6-.47-2.6-3.08v-8.04h-1.76zM564.96 771.07v.05c.1.93.95 1.58 1.86 1.45h.25c1.2-.14 2.05-1.2 1.92-2.4v-2.15c-.55 1.12-1.66 1.8-2.9 1.75-3.04 0-3.86-2.93-3.86-6.5 0-2.8.44-6.48 4.08-6.48 1.28-.06 2.4.7 2.82 1.9v-1.58h2.43v12.18c0 3.1-1.34 5-4.8 5-3.8 0-4.33-2.18-4.33-3.3zm1.8-3.26c2 0 2.2-2.5 2.2-4.52 0-2-.27-4.32-2.07-4.32-1.8 0-2.2 1.9-2.2 4.32 0 2.42.16 4.53 2.07 4.53zM573.94 757.16h2.66v2c.38-1.4 1.56-2.32 3-2.34.22-.04.4-.04.63 0v2.62c-.37-.1-.7-.14-1.08-.16-1.18 0-2.6.52-2.6 2.9v7.66h-2.6zM583.77 763.9v.8c0 1.7.2 3.9 2.16 3.9 1.96 0 2.06-2.16 2.06-2.86h2.42c.16 2.4-1.65 4.45-4.03 4.6h-.5c-2.16 0-4.7-.62-4.7-6.48 0-3.35.72-6.9 4.76-6.9 3.57 0 4.53 2.15 4.53 5.7V764zm4.12-1.74v-.7c0-1.62-.53-2.85-2-2.85-1.45 0-2.16 1.63-2.16 3.3v.26zM594.95 764.72v.42c0 2.17.9 3.1 2.8 3.1.08.02.15.02.24.02 1.32-.03 2.36-1.15 2.33-2.48.1-1.5-.95-2.8-2.44-3l-1.88-.67c-2.2-.47-3.68-2.42-3.55-4.65-.1-2.58 1.92-4.76 4.5-4.85.3 0 .52 0 .8.04 4.33 0 4.8 2.7 4.8 4.5v.38h-2.7v-.38c0-1.54-.7-2.44-2.4-2.44-.14-.02-.27 0-.42 0-1.2.17-2.03 1.26-1.86 2.44 0 1.46.72 2.17 2.54 2.88l1.85.67c2.12.43 3.56 2.3 3.43 4.48 0 3.62-2.16 5.13-5.64 5.13-2.57.3-4.9-1.54-5.2-4.1-.03-.38-.03-.7 0-1.07v-.4zM613.28 769.72c-.87.43-1.7.62-2.68.56-3.9 0-5.63-2.77-5.63-8.83 0-6.04 1.7-8.8 5.63-8.8 3.94 0 5.65 2.76 5.65 8.8.13 2.45-.3 4.54-1.35 6.72l1.74 1.85-1.63 1.45zm-1.44-4.47l1.13 1.13c.47-1.7.62-3.22.52-5 0-5.7-1.3-6.7-2.92-6.7-1.62 0-2.9 1-2.9 6.72 0 5.7 1.28 6.85 2.9 6.85.35 0 .65-.06.98-.17l-1.28-1.23zM618.62 753h2.7v14.7h6.5v2.28h-9.2z" fill="#fff"/><use xlink:href="#t" transform="matrix(1,0,0,1,516.9441788241836,855) translate(13.734567901234563 17.77777777777778)"/><use xlink:href="#u" transform="matrix(1,0,0,1,516.9441788241836,855) translate(31.01851851851852 44.44444444444444)"/><path d="M262.65 251.78h150.5v36.66h-150.5z" fill="#fff" fill-opacity="0"/><use xlink:href="#v" transform="matrix(1,0,0,1,267.6476627914451,256.77747201492105) translate(0 17.77777777777778)"/><use xlink:href="#s" transform="matrix(1,0,0,1,267.6476627914451,256.77747201492105) translate(55.92592592592592 17.77777777777778)"/><path d="M514.44 343.68h120v78h-120v-78z" fill="#876929"/><path d="M514.44 343.68h120v72.67h-120z" fill="#d9a741"/><path d="M547.74 353.46h12.78v54.8h-12.78v-54.8zM568.05 353.46h12.78v54.8h-12.78v-54.8zM588.34 353.46h12.78v54.8h-12.78v-54.8zM529.25 368.98v23.77l10.96-11.9-10.95-11.88zM608.66 368.98v23.77l10.95-11.9-10.94-11.88z" fill="#fff"/><use xlink:href="#w" transform="matrix(1,0,0,1,514.4441788241836,421.6795982747003) translate(34.382716049382715 17.77777777777778)"/><use xlink:href="#x" transform="matrix(1,0,0,1,514.4441788241836,421.6795982747003) translate(26.66666666666667 44.44444444444444)"/><path d="M514.44 533.84h120v120h-120v-120z" stroke="#fff" stroke-opacity="0" stroke-width="2" fill="#d86613"/><path d="M611.24 633.84h-19.7c-.65 0-1.16-.32-1.42-.88l-27.9-58.32h-11.8c-.9 0-1.6-.72-1.6-1.6v-17.6c0-.88.7-1.6 1.6-1.6h24.66c.63 0 1.15.32 1.4.88l27.8 58.32h6.96c.9 0 1.6.72 1.6 1.6v17.6c0 .88-.7 1.6-1.6 1.6zm-18.7-3.2h17.1v-14.4h-6.4c-.64 0-1.15-.32-1.4-.88l-27.8-58.32h-22v14.4h11.2c.63 0 1.14.32 1.46.88z" stroke="#fff" stroke-opacity="0" stroke-width="2" fill="#fff"/><path d="M558.4 633.84h-20.78c-.57 0-1.06-.3-1.38-.73-.32-.53-.32-1.1-.07-1.6l21.77-45.46c.25-.58.8-.92 1.42-.92.63 0 1.16.34 1.45.88l10.42 21.43c.24.44.24.93 0 1.42l-11.37 23.97c-.2.63-.78 1.02-1.45 1.02zm-18.23-3.22h17.24l10.6-22.36-8.6-17.88z" stroke="#fff" stroke-opacity="0" stroke-width="2" fill="#fff"/><use xlink:href="#y" transform="matrix(1,0,0,1,484.4441788241836,662.8397991373502) translate(36.04938271604938 17.77777777777778)"/><path d="M516.94 1018.63h120v20.47h-120v-20.47zM516.94 995.03h120v18.63h-120v-18.63zM636.92 985.13v3.65H516.94v-3.65l69.1-19.9 50.88 19.9z" fill="#876929"/><path d="M516.94 963.1h120v22.04h-120V963.1zM516.94 991.66h119.98v18.36H516.94zM516.94 1017.1h119.98v18.35H516.94z" fill="#d9a741"/><path d="M520.83 995.53h112.2v10.6h-112.2v-10.6zM520.83 1020.97h112.2v10.6h-112.2v-10.6z" fill="#fff"/><use xlink:href="#z" transform="matrix(1,0,0,1,516.9441788241836,1039.1073130077766) translate(13.487654320987652 17.77777777777778)"/><use xlink:href="#A" transform="matrix(1,0,0,1,516.9441788241836,1039.1073130077766) translate(70.89506172839506 17.77777777777778)"/><use xlink:href="#B" transform="matrix(1,0,0,1,516.9441788241836,1039.1073130077766) translate(8.240740740740748 44.44444444444444)"/><use xlink:href="#C" transform="matrix(1,0,0,1,516.9441788241836,1039.1073130077766) translate(60.03086419753087 44.44444444444444)"/><path d="M382.7 593.84h59.12a6 6 0 0 0 6-6V398.68a6 6 0 0 1 6-6h40" stroke="#3a414a" stroke-width="3" fill="none"/><path d="M382.74 595.34h-1.54v-3h1.54z" stroke="#3a414a" stroke-width=".05" fill="#3a414a"/><path d="M509.6 392.68l-14.28 4.63v-9.26z" stroke="#3a414a" stroke-width="3" fill="#3a414a"/><path d="M635.94 387.12h32.5a6 6 0 0 1 6 6v94.72a6 6 0 0 1-6 6h-88a6 6 0 0 0-6 6v13.38" stroke="#3a414a" stroke-width="3" fill="none"/><path d="M635.98 388.62h-1.54v-3h1.54z" stroke="#3a414a" stroke-width=".05" fill="#3a414a"/><path d="M574.44 529l-4.63-14.28h9.28z" stroke="#3a414a" stroke-width="3" fill="#3a414a"/><path d="M512.94 593.84h-32.5a6 6 0 0 0-6 6V799a6 6 0 0 0 6 6h15.88" stroke="#3a414a" stroke-width="3" fill="none"/><path d="M514.44 595.34h-1.53v-3h1.54z" stroke="#3a414a" stroke-width=".05" fill="#3a414a"/><path d="M512.1 805l-14.28 4.63v-9.26z" stroke="#3a414a" stroke-width="3" fill="#3a414a"/><path d="M97.64 513.22V398.68a6 6 0 0 1 6-6h16.94" stroke="#3a414a" stroke-width="3" fill="none"/><path d="M97.64 529L93 514.7h9.28zM136.34 392.68l-14.26 4.63v-9.26z" stroke="#3a414a" stroke-width="3" fill="#3a414a"/><path d="M321.2 513.22V398.68a6 6 0 0 0-6-6h-33.38" stroke="#3a414a" stroke-width="3" fill="none"/><path d="M321.2 529l-4.64-14.28h9.27zM266.05 392.68l14.27-4.64v9.27z" stroke="#3a414a" stroke-width="3" fill="#3a414a"/><path d="M36.14 593.84H3.64a6 6 0 0 0-6 6V789a6 6 0 0 0 6 6H33.6" stroke="#3a414a" stroke-width="3" fill="none"/><path d="M37.64 595.34H36.1v-3h1.54z" stroke="#3a414a" stroke-width=".05" fill="#3a414a"/><path d="M49.35 795l-14.26 4.63v-9.26z" stroke="#3a414a" stroke-width="3" fill="#3a414a"/><path d="M259.7 593.84h-32.5a6 6 0 0 0-6 6v91.35a6 6 0 0 0 6 6h88a6 6 0 0 1 6 6v11.18" stroke="#3a414a" stroke-width="3" fill="none"/><path d="M261.2 595.34h-1.54v-3h1.54z" stroke="#3a414a" stroke-width=".05" fill="#3a414a"/><path d="M321.2 730.15l-4.64-14.27h9.27z" stroke="#3a414a" stroke-width="3" fill="#3a414a"/><path d="M259.7 795h-25.6a6 6 0 0 0-6 6v119.98" stroke="#3a414a" stroke-width="3" fill="none"/><path d="M261.2 796.5h-1.54v-3h1.54z" stroke="#3a414a" stroke-width=".05" fill="#3a414a"/><path d="M228.1 936.74l-4.63-14.26h9.27z" stroke="#3a414a" stroke-width="3" fill="#3a414a"/><path d="M159 795h16.9a6 6 0 0 1 6 6v119.98" stroke="#3a414a" stroke-width="3" fill="none"/><path d="M159.04 796.5h-2.16l.73-1.76-.5-1.24h1.94z" stroke="#3a414a" stroke-width=".05" fill="#3a414a"/><path d="M181.9 936.74l-4.64-14.26h9.27z" stroke="#3a414a" stroke-width="3" fill="#3a414a"/><path d="M635.94 593.84h37.55a6 6 0 0 1 6 6v405.27a6 6 0 0 1-6 6h-15.94" stroke="#3a414a" stroke-width="3" fill="none"/><path d="M635.98 595.34h-1.54v-3h1.54z" stroke="#3a414a" stroke-width=".05" fill="#3a414a"/><path d="M641.8 1011.1l14.26-4.63v9.27z" stroke="#3a414a" stroke-width="3" fill="#3a414a"/><path d="M-197.12 585.27h68.2a6 6 0 0 0 6-6v-228.5a6 6 0 0 1 6-6h237.5" stroke="#3a414a" stroke-width="3" fill="none"/><path d="M-197.08 586.77h-1.54v-3h1.54z" stroke="#3a414a" stroke-width=".05" fill="#3a414a"/><path d="M136.34 344.76l-14.26 4.64v-9.27z" stroke="#3a414a" stroke-width="3" fill="#3a414a"/><path d="M-148.06 764.6h44.7a6 6 0 0 0 6-6V376.46a6 6 0 0 1 6-6H139.7" stroke="#3a414a" stroke-width="3" fill="none"/><path d="M-163.82 764.6l14.26-4.64v9.27z" stroke="#3a414a" stroke-width="3" fill="#3a414a"/><path d="M141.2 371.97h-1.54v-3h1.54z" stroke="#3a414a" stroke-width=".05" fill="#3a414a"/><path d="M137.92 1001.6H-90.6a6 6 0 0 1-6-6v-225a6 6 0 0 0-6-6h-45.46" stroke="#3a414a" stroke-width="3" fill="none"/><path d="M139.42 1003.1h-1.54v-3h1.54z" stroke="#3a414a" stroke-width=".05" fill="#3a414a"/><path d="M-163.82 764.6l14.26-4.64v9.27z" stroke="#3a414a" stroke-width="3" fill="#3a414a"/><defs><path fill="#3a414a" d="M30-248c87 1 191-15 191 75 0 78-77 80-158 76V0H30v-248zm33 125c57 0 124 11 124-50 0-59-68-47-124-48v98" id="D"/><path fill="#3a414a" d="M114-163C36-179 61-72 57 0H25l-1-190h30c1 12-1 29 2 39 6-27 23-49 58-41v29" id="E"/><path fill="#3a414a" d="M100-194c62-1 85 37 85 99 1 63-27 99-86 99S16-35 15-95c0-66 28-99 85-99zM99-20c44 1 53-31 53-75 0-43-8-75-51-75s-53 32-53 75 10 74 51 75" id="F"/><path fill="#3a414a" d="M96-169c-40 0-48 33-48 73s9 75 48 75c24 0 41-14 43-38l32 2c-6 37-31 61-74 61-59 0-76-41-82-99-10-93 101-131 147-64 4 7 5 14 7 22l-32 3c-4-21-16-35-41-35" id="G"/><path fill="#3a414a" d="M100-194c63 0 86 42 84 106H49c0 40 14 67 53 68 26 1 43-12 49-29l28 8c-11 28-37 45-77 45C44 4 14-33 15-96c1-61 26-98 85-98zm52 81c6-60-76-77-97-28-3 7-6 17-6 28h103" id="H"/><path fill="#3a414a" d="M135-143c-3-34-86-38-87 0 15 53 115 12 119 90S17 21 10-45l28-5c4 36 97 45 98 0-10-56-113-15-118-90-4-57 82-63 122-42 12 7 21 19 24 35" id="I"/><g id="a"><use transform="matrix(0.06172839506172839,0,0,0.06172839506172839,0,0)" xlink:href="#D"/><use transform="matrix(0.06172839506172839,0,0,0.06172839506172839,14.814814814814813,0)" xlink:href="#E"/><use transform="matrix(0.06172839506172839,0,0,0.06172839506172839,22.160493827160494,0)" xlink:href="#F"/><use transform="matrix(0.06172839506172839,0,0,0.06172839506172839,34.50617283950617,0)" xlink:href="#G"/><use transform="matrix(0.06172839506172839,0,0,0.06172839506172839,45.61728395061728,0)" xlink:href="#H"/><use transform="matrix(0.06172839506172839,0,0,0.06172839506172839,57.962962962962955,0)" xlink:href="#I"/><use transform="matrix(0.06172839506172839,0,0,0.06172839506172839,69.07407407407406,0)" xlink:href="#I"/></g><path fill="#3a414a" d="M232-93c-1 65-40 97-104 97C67 4 28-28 28-90v-158h33c8 89-33 224 67 224 102 0 64-133 71-224h33v155" id="J"/><path fill="#3a414a" d="M115-194c55 1 70 41 70 98S169 2 115 4C84 4 66-9 55-30l1 105H24l-1-265h31l2 30c10-21 28-34 59-34zm-8 174c40 0 45-34 45-75s-6-73-45-74c-42 0-51 32-51 76 0 43 10 73 51 73" id="K"/><path fill="#3a414a" d="M85-194c31 0 48 13 60 33l-1-100h32l1 261h-30c-2-10 0-23-3-31C134-8 116 4 85 4 32 4 16-35 15-94c0-66 23-100 70-100zm9 24c-40 0-46 34-46 75 0 40 6 74 45 74 42 0 51-32 51-76 0-42-9-74-50-73" id="L"/><path fill="#3a414a" d="M141-36C126-15 110 5 73 4 37 3 15-17 15-53c-1-64 63-63 125-63 3-35-9-54-41-54-24 1-41 7-42 31l-33-3c5-37 33-52 76-52 45 0 72 20 72 64v82c-1 20 7 32 28 27v20c-31 9-61-2-59-35zM48-53c0 20 12 33 32 33 41-3 63-29 60-74-43 2-92-5-92 41" id="M"/><path fill="#3a414a" d="M59-47c-2 24 18 29 38 22v24C64 9 27 4 27-40v-127H5v-23h24l9-43h21v43h35v23H59v120" id="N"/><path fill="#3a414a" d="M63-220v92h138v28H63V0H30v-248h175v28H63" id="O"/><path fill="#3a414a" d="M117-194c89-4 53 116 60 194h-32v-121c0-31-8-49-39-48C34-167 62-67 57 0H25l-1-190h30c1 10-1 24 2 32 11-22 29-35 61-36" id="P"/><g id="b"><use transform="matrix(0.06172839506172839,0,0,0.06172839506172839,0,0)" xlink:href="#J"/><use transform="matrix(0.06172839506172839,0,0,0.06172839506172839,15.987654320987653,0)" xlink:href="#K"/><use transform="matrix(0.06172839506172839,0,0,0.06172839506172839,28.333333333333332,0)" xlink:href="#L"/><use transform="matrix(0.06172839506172839,0,0,0.06172839506172839,40.67901234567901,0)" xlink:href="#M"/><use transform="matrix(0.06172839506172839,0,0,0.06172839506172839,53.02469135802469,0)" xlink:href="#N"/><use transform="matrix(0.06172839506172839,0,0,0.06172839506172839,59.19753086419753,0)" xlink:href="#H"/><use transform="matrix(0.06172839506172839,0,0,0.06172839506172839,71.54320987654322,0)" xlink:href="#E"/><use transform="matrix(0.06172839506172839,0,0,0.06172839506172839,78.8888888888889,0)" xlink:href="#O"/><use transform="matrix(0.06172839506172839,0,0,0.06172839506172839,92.40740740740742,0)" xlink:href="#P"/></g><path fill="#3a414a" d="M205 0l-28-72H64L36 0H1l101-248h38L239 0h-34zm-38-99l-47-123c-12 45-31 82-46 123h93" id="Q"/><path fill="#3a414a" d="M33 0v-248h34V0H33" id="R"/><g id="c"><use transform="matrix(0.06172839506172839,0,0,0.06172839506172839,0,0)" xlink:href="#Q"/><use transform="matrix(0.06172839506172839,0,0,0.06172839506172839,14.814814814814813,0)" xlink:href="#D"/><use transform="matrix(0.06172839506172839,0,0,0.06172839506172839,29.629629629629626,0)" xlink:href="#R"/></g><path fill="#3a414a" d="M143 4C61 4 22-44 18-125c-5-107 100-154 193-111 17 8 29 25 37 43l-32 9c-13-25-37-40-76-40-61 0-88 39-88 99 0 61 29 100 91 101 35 0 62-11 79-27v-45h-74v-28h105v86C228-13 192 4 143 4" id="S"/><path fill="#3a414a" d="M206 0h-36l-40-164L89 0H53L-1-190h32L70-26l43-164h34l41 164 42-164h31" id="T"/><path fill="#3a414a" d="M179-190L93 31C79 59 56 82 12 73V49c39 6 53-20 64-50L1-190h34L92-34l54-156h33" id="U"/><g id="d"><use transform="matrix(0.06172839506172839,0,0,0.06172839506172839,0,0)" xlink:href="#S"/><use transform="matrix(0.06172839506172839,0,0,0.06172839506172839,17.28395061728395,0)" xlink:href="#M"/><use transform="matrix(0.06172839506172839,0,0,0.06172839506172839,29.629629629629626,0)" xlink:href="#N"/><use transform="matrix(0.06172839506172839,0,0,0.06172839506172839,35.80246913580247,0)" xlink:href="#H"/><use transform="matrix(0.06172839506172839,0,0,0.06172839506172839,48.148148148148145,0)" xlink:href="#T"/><use transform="matrix(0.06172839506172839,0,0,0.06172839506172839,64.1358024691358,0)" xlink:href="#M"/><use transform="matrix(0.06172839506172839,0,0,0.06172839506172839,76.48148148148148,0)" xlink:href="#U"/></g><path d="M30 0v-248h187v28H63v79h144v27H63v87h162V0H30" id="V"/><path d="M108 0H70L1-190h34L89-25l56-165h34" id="W"/><path d="M100-194c63 0 86 42 84 106H49c0 40 14 67 53 68 26 1 43-12 49-29l28 8c-11 28-37 45-77 45C44 4 14-33 15-96c1-61 26-98 85-98zm52 81c6-60-76-77-97-28-3 7-6 17-6 28h103" id="X"/><path d="M117-194c89-4 53 116 60 194h-32v-121c0-31-8-49-39-48C34-167 62-67 57 0H25l-1-190h30c1 10-1 24 2 32 11-22 29-35 61-36" id="Y"/><path d="M59-47c-2 24 18 29 38 22v24C64 9 27 4 27-40v-127H5v-23h24l9-43h21v43h35v23H59v120" id="Z"/><path d="M160-131c35 5 61 23 61 61C221 17 115-2 30 0v-248c76 3 177-17 177 60 0 33-19 50-47 57zm-97-11c50-1 110 9 110-42 0-47-63-36-110-37v79zm0 115c55-2 124 14 124-45 0-56-70-42-124-44v89" id="aa"/><path d="M114-163C36-179 61-72 57 0H25l-1-190h30c1 12-1 29 2 39 6-27 23-49 58-41v29" id="ab"/><path d="M24-231v-30h32v30H24zM24 0v-190h32V0H24" id="ac"/><path d="M85-194c31 0 48 13 60 33l-1-100h32l1 261h-30c-2-10 0-23-3-31C134-8 116 4 85 4 32 4 16-35 15-94c0-66 23-100 70-100zm9 24c-40 0-46 34-46 75 0 40 6 74 45 74 42 0 51-32 51-76 0-42-9-74-50-73" id="ad"/><path d="M177-190C167-65 218 103 67 71c-23-6-38-20-44-43l32-5c15 47 100 32 89-28v-30C133-14 115 1 83 1 29 1 15-40 15-95c0-56 16-97 71-98 29-1 48 16 59 35 1-10 0-23 2-32h30zM94-22c36 0 50-32 50-73 0-42-14-75-50-75-39 0-46 34-46 75s6 73 46 73" id="ae"/><g id="e"><use transform="matrix(0.06234567901234567,0,0,0.06234567901234567,0,0)" xlink:href="#V"/><use transform="matrix(0.06234567901234567,0,0,0.06234567901234567,14.96296296296296,0)" xlink:href="#W"/><use transform="matrix(0.06234567901234567,0,0,0.06234567901234567,26.18518518518518,0)" xlink:href="#X"/><use transform="matrix(0.06234567901234567,0,0,0.06234567901234567,38.654320987654316,0)" xlink:href="#Y"/><use transform="matrix(0.06234567901234567,0,0,0.06234567901234567,51.12345679012345,0)" xlink:href="#Z"/><use transform="matrix(0.06234567901234567,0,0,0.06234567901234567,57.35802469135801,0)" xlink:href="#aa"/><use transform="matrix(0.06234567901234567,0,0,0.06234567901234567,72.32098765432097,0)" xlink:href="#ab"/><use transform="matrix(0.06234567901234567,0,0,0.06234567901234567,79.7401234567901,0)" xlink:href="#ac"/><use transform="matrix(0.06234567901234567,0,0,0.06234567901234567,84.66543209876541,0)" xlink:href="#ad"/><use transform="matrix(0.06234567901234567,0,0,0.06234567901234567,97.13456790123453,0)" xlink:href="#ae"/><use transform="matrix(0.06234567901234567,0,0,0.06234567901234567,109.60370370370367,0)" xlink:href="#X"/></g><path d="M212-179c-10-28-35-45-73-45-59 0-87 40-87 99 0 60 29 101 89 101 43 0 62-24 78-52l27 14C228-24 195 4 139 4 59 4 22-46 18-125c-6-104 99-153 187-111 19 9 31 26 39 46" id="af"/><path d="M100-194c62-1 85 37 85 99 1 63-27 99-86 99S16-35 15-95c0-66 28-99 85-99zM99-20c44 1 53-31 53-75 0-43-8-75-51-75s-53 32-53 75 10 74 51 75" id="ag"/><g id="f"><use transform="matrix(0.06234567901234567,0,0,0.06234567901234567,0,0)" xlink:href="#af"/><use transform="matrix(0.06234567901234567,0,0,0.06234567901234567,16.147530864197527,0)" xlink:href="#ab"/><use transform="matrix(0.06234567901234567,0,0,0.06234567901234567,23.566666666666663,0)" xlink:href="#ag"/><use transform="matrix(0.06234567901234567,0,0,0.06234567901234567,36.035802469135795,0)" xlink:href="#Y"/></g><path d="M233-177c-1 41-23 64-60 70L243 0h-38l-65-103H63V0H30v-248c88 3 205-21 203 71zM63-129c60-2 137 13 137-47 0-61-80-42-137-45v92" id="ah"/><path d="M84 4C-5 8 30-112 23-190h32v120c0 31 7 50 39 49 72-2 45-101 50-169h31l1 190h-30c-1-10 1-25-2-33-11 22-28 36-60 37" id="ai"/><path d="M24 0v-261h32V0H24" id="aj"/><g id="g"><use transform="matrix(0.06234567901234567,0,0,0.06234567901234567,0,0)" xlink:href="#ah"/><use transform="matrix(0.06234567901234567,0,0,0.06234567901234567,16.147530864197527,0)" xlink:href="#ai"/><use transform="matrix(0.06234567901234567,0,0,0.06234567901234567,28.61666666666666,0)" xlink:href="#aj"/><use transform="matrix(0.06234567901234567,0,0,0.06234567901234567,33.541975308641966,0)" xlink:href="#X"/></g><path fill="#3a414a" d="M240 0l2-218c-23 76-54 145-80 218h-23L58-218 59 0H30v-248h44l77 211c21-75 51-140 76-211h43V0h-30" id="ak"/><path fill="#3a414a" d="M24 0v-261h32V0H24" id="al"/><g id="h"><use transform="matrix(0.06172839506172839,0,0,0.06172839506172839,0,0)" xlink:href="#ak"/><use transform="matrix(0.06172839506172839,0,0,0.06172839506172839,18.456790123456788,0)" xlink:href="#F"/><use transform="matrix(0.06172839506172839,0,0,0.06172839506172839,30.80246913580247,0)" xlink:href="#L"/><use transform="matrix(0.06172839506172839,0,0,0.06172839506172839,43.148148148148145,0)" xlink:href="#H"/><use transform="matrix(0.06172839506172839,0,0,0.06172839506172839,55.49382716049382,0)" xlink:href="#al"/></g><g id="i"><use transform="matrix(0.06172839506172839,0,0,0.06172839506172839,0,0)" xlink:href="#S"/><use transform="matrix(0.06172839506172839,0,0,0.06172839506172839,17.28395061728395,0)" xlink:href="#H"/><use transform="matrix(0.06172839506172839,0,0,0.06172839506172839,29.629629629629626,0)" xlink:href="#P"/><use transform="matrix(0.06172839506172839,0,0,0.06172839506172839,41.9753086419753,0)" xlink:href="#H"/><use transform="matrix(0.06172839506172839,0,0,0.06172839506172839,54.32098765432098,0)" xlink:href="#E"/><use transform="matrix(0.06172839506172839,0,0,0.06172839506172839,61.66666666666666,0)" xlink:href="#M"/><use transform="matrix(0.06172839506172839,0,0,0.06172839506172839,74.01234567901234,0)" xlink:href="#N"/><use transform="matrix(0.06172839506172839,0,0,0.06172839506172839,80.18518518518518,0)" xlink:href="#F"/><use transform="matrix(0.06172839506172839,0,0,0.06172839506172839,92.53086419753086,0)" xlink:href="#E"/><use transform="matrix(0.06172839506172839,0,0,0.06172839506172839,99.87654320987654,0)" xlink:href="#O"/><use transform="matrix(0.06172839506172839,0,0,0.06172839506172839,113.39506172839506,0)" xlink:href="#P"/></g><path fill="#3a414a" d="M185-189c-5-48-123-54-124 2 14 75 158 14 163 119 3 78-121 87-175 55-17-10-28-26-33-46l33-7c5 56 141 63 141-1 0-78-155-14-162-118-5-82 145-84 179-34 5 7 8 16 11 25" id="am"/><path fill="#3a414a" d="M24-231v-30h32v30H24zM24 0v-190h32V0H24" id="an"/><path fill="#3a414a" d="M9 0v-24l116-142H16v-24h144v24L44-24h123V0H9" id="ao"/><g id="j"><use transform="matrix(0.06172839506172839,0,0,0.06172839506172839,0,0)" xlink:href="#am"/><use transform="matrix(0.06172839506172839,0,0,0.06172839506172839,14.814814814814813,0)" xlink:href="#H"/><use transform="matrix(0.06172839506172839,0,0,0.06172839506172839,27.160493827160494,0)" xlink:href="#E"/><use transform="matrix(0.06172839506172839,0,0,0.06172839506172839,34.50617283950617,0)" xlink:href="#an"/><use transform="matrix(0.06172839506172839,0,0,0.06172839506172839,39.382716049382715,0)" xlink:href="#M"/><use transform="matrix(0.06172839506172839,0,0,0.06172839506172839,51.72839506172839,0)" xlink:href="#al"/><use transform="matrix(0.06172839506172839,0,0,0.06172839506172839,56.60493827160494,0)" xlink:href="#an"/><use transform="matrix(0.06172839506172839,0,0,0.06172839506172839,61.48148148148148,0)" xlink:href="#ao"/><use transform="matrix(0.06172839506172839,0,0,0.06172839506172839,72.5925925925926,0)" xlink:href="#H"/><use transform="matrix(0.06172839506172839,0,0,0.06172839506172839,84.93827160493828,0)" xlink:href="#L"/></g><g id="k"><use transform="matrix(0.06172839506172839,0,0,0.06172839506172839,0,0)" xlink:href="#ak"/><use transform="matrix(0.06172839506172839,0,0,0.06172839506172839,18.456790123456788,0)" xlink:href="#F"/><use transform="matrix(0.06172839506172839,0,0,0.06172839506172839,30.80246913580247,0)" xlink:href="#L"/><use transform="matrix(0.06172839506172839,0,0,0.06172839506172839,43.148148148148145,0)" xlink:href="#H"/><use transform="matrix(0.06172839506172839,0,0,0.06172839506172839,55.49382716049382,0)" xlink:href="#al"/></g><path fill="#3a414a" d="M160-131c35 5 61 23 61 61C221 17 115-2 30 0v-248c76 3 177-17 177 60 0 33-19 50-47 57zm-97-11c50-1 110 9 110-42 0-47-63-36-110-37v79zm0 115c55-2 124 14 124-45 0-56-70-42-124-44v89" id="ap"/><path fill="#3a414a" d="M84 4C-5 8 30-112 23-190h32v120c0 31 7 50 39 49 72-2 45-101 50-169h31l1 190h-30c-1-10 1-25-2-33-11 22-28 36-60 37" id="aq"/><path fill="#3a414a" d="M143 0L79-87 56-68V0H24v-261h32v163l83-92h37l-77 82L181 0h-38" id="ar"/><g id="l"><use transform="matrix(0.06172839506172839,0,0,0.06172839506172839,0,0)" xlink:href="#ap"/><use transform="matrix(0.06172839506172839,0,0,0.06172839506172839,14.814814814814813,0)" xlink:href="#aq"/><use transform="matrix(0.06172839506172839,0,0,0.06172839506172839,27.160493827160494,0)" xlink:href="#G"/><use transform="matrix(0.06172839506172839,0,0,0.06172839506172839,38.27160493827161,0)" xlink:href="#ar"/><use transform="matrix(0.06172839506172839,0,0,0.06172839506172839,49.38271604938272,0)" xlink:href="#H"/><use transform="matrix(0.06172839506172839,0,0,0.06172839506172839,61.7283950617284,0)" xlink:href="#N"/></g><path fill="#3a414a" d="M127-220V0H93v-220H8v-28h204v28h-85" id="as"/><path fill="#3a414a" d="M210-169c-67 3-38 105-44 169h-31v-121c0-29-5-50-35-48C34-165 62-65 56 0H25l-1-190h30c1 10-1 24 2 32 10-44 99-50 107 0 11-21 27-35 58-36 85-2 47 119 55 194h-31v-121c0-29-5-49-35-48" id="at"/><g id="m"><use transform="matrix(0.06172839506172839,0,0,0.06172839506172839,0,0)" xlink:href="#as"/><use transform="matrix(0.06172839506172839,0,0,0.06172839506172839,11.049382716049381,0)" xlink:href="#H"/><use transform="matrix(0.06172839506172839,0,0,0.06172839506172839,23.39506172839506,0)" xlink:href="#at"/><use transform="matrix(0.06172839506172839,0,0,0.06172839506172839,41.85185185185185,0)" xlink:href="#K"/><use transform="matrix(0.06172839506172839,0,0,0.06172839506172839,54.197530864197525,0)" xlink:href="#H"/><use transform="matrix(0.06172839506172839,0,0,0.06172839506172839,66.5432098765432,0)" xlink:href="#E"/><use transform="matrix(0.06172839506172839,0,0,0.06172839506172839,73.88888888888889,0)" xlink:href="#M"/><use transform="matrix(0.06172839506172839,0,0,0.06172839506172839,86.23456790123457,0)" xlink:href="#N"/><use transform="matrix(0.06172839506172839,0,0,0.06172839506172839,92.4074074074074,0)" xlink:href="#aq"/><use transform="matrix(0.06172839506172839,0,0,0.06172839506172839,104.75308641975309,0)" xlink:href="#E"/><use transform="matrix(0.06172839506172839,0,0,0.06172839506172839,112.09876543209877,0)" xlink:href="#H"/></g><path fill="#3a414a" d="M212-179c-10-28-35-45-73-45-59 0-87 40-87 99 0 60 29 101 89 101 43 0 62-24 78-52l27 14C228-24 195 4 139 4 59 4 22-46 18-125c-6-104 99-153 187-111 19 9 31 26 39 46" id="au"/><g id="n"><use transform="matrix(0.06172839506172839,0,0,0.06172839506172839,0,0)" xlink:href="#au"/><use transform="matrix(0.06172839506172839,0,0,0.06172839506172839,15.987654320987653,0)" xlink:href="#U"/><use transform="matrix(0.06172839506172839,0,0,0.06172839506172839,27.098765432098766,0)" xlink:href="#G"/><use transform="matrix(0.06172839506172839,0,0,0.06172839506172839,38.20987654320987,0)" xlink:href="#al"/><use transform="matrix(0.06172839506172839,0,0,0.06172839506172839,43.08641975308642,0)" xlink:href="#H"/><use transform="matrix(0.06172839506172839,0,0,0.06172839506172839,55.432098765432094,0)" xlink:href="#O"/><use transform="matrix(0.06172839506172839,0,0,0.06172839506172839,68.9506172839506,0)" xlink:href="#P"/></g><path fill="#3a414a" d="M197 0v-115H63V0H30v-248h33v105h134v-105h34V0h-34" id="av"/><g id="o"><use transform="matrix(0.06172839506172839,0,0,0.06172839506172839,0,0)" xlink:href="#av"/><use transform="matrix(0.06172839506172839,0,0,0.06172839506172839,15.987654320987653,0)" xlink:href="#aq"/><use transform="matrix(0.06172839506172839,0,0,0.06172839506172839,28.333333333333332,0)" xlink:href="#H"/></g><g id="p"><use transform="matrix(0.06172839506172839,0,0,0.06172839506172839,0,0)" xlink:href="#am"/><use transform="matrix(0.06172839506172839,0,0,0.06172839506172839,14.814814814814813,0)" xlink:href="#U"/><use transform="matrix(0.06172839506172839,0,0,0.06172839506172839,25.925925925925924,0)" xlink:href="#I"/><use transform="matrix(0.06172839506172839,0,0,0.06172839506172839,37.03703703703704,0)" xlink:href="#N"/><use transform="matrix(0.06172839506172839,0,0,0.06172839506172839,43.20987654320988,0)" xlink:href="#H"/><use transform="matrix(0.06172839506172839,0,0,0.06172839506172839,55.55555555555556,0)" xlink:href="#at"/></g><path fill="#3a414a" d="M30-248c118-7 216 8 213 122C240-48 200 0 122 0H30v-248zM63-27c89 8 146-16 146-99s-60-101-146-95v194" id="aw"/><path fill="#3a414a" d="M108 0H70L1-190h34L89-25l56-165h34" id="ax"/><g id="q"><use transform="matrix(0.06172839506172839,0,0,0.06172839506172839,0,0)" xlink:href="#aw"/><use transform="matrix(0.06172839506172839,0,0,0.06172839506172839,15.987654320987653,0)" xlink:href="#H"/><use transform="matrix(0.06172839506172839,0,0,0.06172839506172839,28.333333333333332,0)" xlink:href="#ax"/><use transform="matrix(0.06172839506172839,0,0,0.06172839506172839,39.44444444444444,0)" xlink:href="#an"/><use transform="matrix(0.06172839506172839,0,0,0.06172839506172839,44.32098765432099,0)" xlink:href="#G"/><use transform="matrix(0.06172839506172839,0,0,0.06172839506172839,55.4320987654321,0)" xlink:href="#H"/></g><path fill="#3a414a" d="M30 0v-248h33v221h125V0H30" id="ay"/><g id="r"><use transform="matrix(0.06172839506172839,0,0,0.06172839506172839,0,0)" xlink:href="#ay"/><use transform="matrix(0.06172839506172839,0,0,0.06172839506172839,12.345679012345679,0)" xlink:href="#F"/><use transform="matrix(0.06172839506172839,0,0,0.06172839506172839,24.691358024691358,0)" xlink:href="#G"/><use transform="matrix(0.06172839506172839,0,0,0.06172839506172839,35.80246913580247,0)" xlink:href="#M"/><use transform="matrix(0.06172839506172839,0,0,0.06172839506172839,48.148148148148145,0)" xlink:href="#al"/></g><path fill="#3a414a" d="M190 0L58-211 59 0H30v-248h39L202-35l-2-213h31V0h-41" id="az"/><g id="s"><use transform="matrix(0.06172839506172839,0,0,0.06172839506172839,0,0)" xlink:href="#az"/><use transform="matrix(0.06172839506172839,0,0,0.06172839506172839,15.987654320987653,0)" xlink:href="#H"/><use transform="matrix(0.06172839506172839,0,0,0.06172839506172839,28.333333333333332,0)" xlink:href="#N"/><use transform="matrix(0.06172839506172839,0,0,0.06172839506172839,34.50617283950617,0)" xlink:href="#T"/><use transform="matrix(0.06172839506172839,0,0,0.06172839506172839,50.49382716049382,0)" xlink:href="#F"/><use transform="matrix(0.06172839506172839,0,0,0.06172839506172839,62.8395061728395,0)" xlink:href="#E"/><use transform="matrix(0.06172839506172839,0,0,0.06172839506172839,70.18518518518518,0)" xlink:href="#ar"/></g><path fill="#3a414a" d="M106-169C34-169 62-67 57 0H25v-261h32l-1 103c12-21 28-36 61-36 89 0 53 116 60 194h-32v-121c2-32-8-49-39-48" id="aA"/><g id="t"><use transform="matrix(0.06172839506172839,0,0,0.06172839506172839,0,0)" xlink:href="#ap"/><use transform="matrix(0.06172839506172839,0,0,0.06172839506172839,14.814814814814813,0)" xlink:href="#H"/><use transform="matrix(0.06172839506172839,0,0,0.06172839506172839,27.160493827160494,0)" xlink:href="#aA"/><use transform="matrix(0.06172839506172839,0,0,0.06172839506172839,39.50617283950617,0)" xlink:href="#M"/><use transform="matrix(0.06172839506172839,0,0,0.06172839506172839,51.85185185185185,0)" xlink:href="#ax"/><use transform="matrix(0.06172839506172839,0,0,0.06172839506172839,62.96296296296296,0)" xlink:href="#an"/><use transform="matrix(0.06172839506172839,0,0,0.06172839506172839,67.8395061728395,0)" xlink:href="#F"/><use transform="matrix(0.06172839506172839,0,0,0.06172839506172839,80.18518518518519,0)" xlink:href="#E"/></g><path fill="#3a414a" d="M115-194c53 0 69 39 70 98 0 66-23 100-70 100C84 3 66-7 56-30L54 0H23l1-261h32v101c10-23 28-34 59-34zm-8 174c40 0 45-34 45-75 0-40-5-75-45-74-42 0-51 32-51 76 0 43 10 73 51 73" id="aB"/><g id="u"><use transform="matrix(0.06172839506172839,0,0,0.06172839506172839,0,0)" xlink:href="#as"/><use transform="matrix(0.06172839506172839,0,0,0.06172839506172839,11.049382716049381,0)" xlink:href="#M"/><use transform="matrix(0.06172839506172839,0,0,0.06172839506172839,23.39506172839506,0)" xlink:href="#aB"/><use transform="matrix(0.06172839506172839,0,0,0.06172839506172839,35.74074074074074,0)" xlink:href="#al"/><use transform="matrix(0.06172839506172839,0,0,0.06172839506172839,40.617283950617285,0)" xlink:href="#H"/></g><path fill="#3a414a" d="M266 0h-40l-56-210L115 0H75L2-248h35L96-30l15-64 43-154h32l59 218 59-218h35" id="aC"/><g id="v"><use transform="matrix(0.06172839506172839,0,0,0.06172839506172839,0,0)" xlink:href="#Q"/><use transform="matrix(0.06172839506172839,0,0,0.06172839506172839,14.012345679012345,0)" xlink:href="#aC"/><use transform="matrix(0.06172839506172839,0,0,0.06172839506172839,34.938271604938265,0)" xlink:href="#am"/></g><g id="w"><use transform="matrix(0.06172839506172839,0,0,0.06172839506172839,0,0)" xlink:href="#aC"/><use transform="matrix(0.06172839506172839,0,0,0.06172839506172839,20.493827160493826,0)" xlink:href="#E"/><use transform="matrix(0.06172839506172839,0,0,0.06172839506172839,27.839506172839506,0)" xlink:href="#an"/><use transform="matrix(0.06172839506172839,0,0,0.06172839506172839,32.71604938271605,0)" xlink:href="#N"/><use transform="matrix(0.06172839506172839,0,0,0.06172839506172839,38.88888888888889,0)" xlink:href="#H"/></g><path fill="#3a414a" d="M140-251c81 0 123 46 123 126C263-53 228-8 163 1c7 30 30 48 69 40v23c-55 16-95-15-103-61C56-3 17-48 17-125c0-80 42-126 123-126zm0 227c63 0 89-41 89-101s-29-99-89-99c-61 0-89 39-89 99S79-25 140-24" id="aD"/><g id="x"><use transform="matrix(0.06172839506172839,0,0,0.06172839506172839,0,0)" xlink:href="#aD"/><use transform="matrix(0.06172839506172839,0,0,0.06172839506172839,17.28395061728395,0)" xlink:href="#aq"/><use transform="matrix(0.06172839506172839,0,0,0.06172839506172839,29.629629629629626,0)" xlink:href="#H"/><use transform="matrix(0.06172839506172839,0,0,0.06172839506172839,41.9753086419753,0)" xlink:href="#aq"/><use transform="matrix(0.06172839506172839,0,0,0.06172839506172839,54.32098765432098,0)" xlink:href="#H"/></g><g id="y"><use transform="matrix(0.06172839506172839,0,0,0.06172839506172839,0,0)" xlink:href="#aw"/><use transform="matrix(0.06172839506172839,0,0,0.06172839506172839,15.987654320987653,0)" xlink:href="#ap"/><use transform="matrix(0.06172839506172839,0,0,0.06172839506172839,30.80246913580247,0)" xlink:href="#aC"/><use transform="matrix(0.06172839506172839,0,0,0.06172839506172839,51.29629629629629,0)" xlink:href="#E"/><use transform="matrix(0.06172839506172839,0,0,0.06172839506172839,58.64197530864197,0)" xlink:href="#an"/><use transform="matrix(0.06172839506172839,0,0,0.06172839506172839,63.51851851851851,0)" xlink:href="#N"/><use transform="matrix(0.06172839506172839,0,0,0.06172839506172839,69.69135802469135,0)" xlink:href="#H"/><use transform="matrix(0.06172839506172839,0,0,0.06172839506172839,82.03703703703704,0)" xlink:href="#O"/><use transform="matrix(0.06172839506172839,0,0,0.06172839506172839,95.55555555555556,0)" xlink:href="#P"/></g><g id="z"><use transform="matrix(0.06172839506172839,0,0,0.06172839506172839,0,0)" xlink:href="#aC"/><use transform="matrix(0.06172839506172839,0,0,0.06172839506172839,20.493827160493826,0)" xlink:href="#E"/><use transform="matrix(0.06172839506172839,0,0,0.06172839506172839,27.839506172839506,0)" xlink:href="#an"/><use transform="matrix(0.06172839506172839,0,0,0.06172839506172839,32.71604938271605,0)" xlink:href="#N"/><use transform="matrix(0.06172839506172839,0,0,0.06172839506172839,38.88888888888889,0)" xlink:href="#H"/></g><g id="A"><use transform="matrix(0.06172839506172839,0,0,0.06172839506172839,0,0)" xlink:href="#O"/><use transform="matrix(0.06172839506172839,0,0,0.06172839506172839,13.518518518518517,0)" xlink:href="#M"/><use transform="matrix(0.06172839506172839,0,0,0.06172839506172839,25.864197530864196,0)" xlink:href="#an"/><use transform="matrix(0.06172839506172839,0,0,0.06172839506172839,30.74074074074074,0)" xlink:href="#al"/></g><g id="B"><use transform="matrix(0.06172839506172839,0,0,0.06172839506172839,0,0)" xlink:href="#am"/><use transform="matrix(0.06172839506172839,0,0,0.06172839506172839,14.814814814814813,0)" xlink:href="#az"/><use transform="matrix(0.06172839506172839,0,0,0.06172839506172839,30.80246913580247,0)" xlink:href="#am"/></g><g id="C"><use transform="matrix(0.06172839506172839,0,0,0.06172839506172839,0,0)" xlink:href="#as"/><use transform="matrix(0.06172839506172839,0,0,0.06172839506172839,11.049382716049381,0)" xlink:href="#F"/><use transform="matrix(0.06172839506172839,0,0,0.06172839506172839,23.39506172839506,0)" xlink:href="#K"/><use transform="matrix(0.06172839506172839,0,0,0.06172839506172839,35.74074074074074,0)" xlink:href="#an"/><use transform="matrix(0.06172839506172839,0,0,0.06172839506172839,40.617283950617285,0)" xlink:href="#G"/></g></defs></g></svg>